<svg xmlns="http://www.w3.org/2000/svg" viewBox="0 0 900 580" role="img" aria-label="ProReply demo placeholder">
  <defs>
    <linearGradient id="bg" x1="0" y1="0" x2="1" y2="1">
      <stop offset="0" stop-color="#e6f2ff"/>
      <stop offset="1" stop-color="#d4e8ff"/>
    </linearGradient>
    <linearGradient id="card" x1="0" y1="0" x2="1" y2="1">
      <stop offset="0" stop-color="#ffffff"/>
      <stop offset="1" stop-color="#f3f8ff"/>
    </linearGradient>
  </defs>
  <rect width="900" height="580" rx="24" fill="url(#bg)"/>
  <rect x="50" y="45" width="800" height="490" rx="18" fill="url(#card)" stroke="#b9d5f6"/>
  <rect x="80" y="82" width="740" height="58" rx="12" fill="#eaf4ff"/>
  <circle cx="112" cy="112" r="12" fill="#4a90e2"/>
  <rect x="140" y="101" width="160" height="20" rx="8" fill="#96c2f3"/>
  <rect x="80" y="170" width="480" height="82" rx="14" fill="#e2f0ff"/>
  <rect x="90" y="185" width="220" height="16" rx="8" fill="#77aee8"/>
  <rect x="90" y="209" width="420" height="14" rx="7" fill="#9bc2ec"/>
  <rect x="340" y="270" width="480" height="82" rx="14" fill="#d9ffe9"/>
  <rect x="350" y="285" width="280" height="16" rx="8" fill="#65b789"/>
  <rect x="350" y="309" width="430" height="14" rx="7" fill="#89ccab"/>
  <rect x="80" y="380" width="220" height="110" rx="14" fill="#f5faff" stroke="#d2e4fa"/>
  <rect x="330" y="380" width="220" height="110" rx="14" fill="#f5faff" stroke="#d2e4fa"/>
  <rect x="580" y="380" width="220" height="110" rx="14" fill="#f5faff" stroke="#d2e4fa"/>
</svg>
